<svg xmlns="http://www.w3.org/2000/svg" xmlns:xlink="http://www.w3.org/1999/xlink" width="1920" zoomAndPan="magnify" viewBox="0 0 1440 809.999993" height="1080" preserveAspectRatio="xMidYMid meet" version="1.0"><rect x="-144" width="1728" fill="#ffffff" y="-80.999999" height="971.999992" fill-opacity="1"/><rect x="-144" width="1728" fill="#ffffff" y="-80.999999" height="971.999992" fill-opacity="1"/><path fill="#fffae6" d="M 1439.875 207.988281 C 1439.910156 138.6875 1439.945312 69.390625 1439.980469 0.0898438 L 0.503906 0.0898438 C 0.339844 67.671875 0.179688 135.253906 0.0195312 202.832031 C 46.5625 163.878906 117.910156 180.152344 170.734375 210.042969 C 212.230469 233.523438 250.015625 264.21875 294.722656 281.730469 C 339.101562 299.109375 388.746094 312.453125 433.5 288.714844 C 466.488281 271.214844 489.0625 239.460938 516.78125 214.441406 C 573.707031 163.054688 655.621094 140.761719 730.734375 156.214844 C 811.910156 172.914062 884.964844 230.433594 967.671875 225.183594 C 1031.214844 221.148438 1085.835938 180.621094 1145.769531 159.128906 C 1243.519531 124.078125 1358.867188 143.382812 1439.875 208.355469 Z M 1439.875 207.988281 " fill-opacity="1" fill-rule="nonzero"/><path fill="#ffe4c4" d="M 1439.980469 193.554688 L 1439.980469 0.0898438 L 0.503906 0.0898438 L 0.503906 144.378906 C 191.609375 36.726562 323.917969 260.550781 474.210938 195.679688 C 532.867188 170.359375 591.039062 125.03125 657.703125 120.300781 C 756.652344 113.289062 842.660156 174.359375 939.347656 172.277344 C 1016.480469 170.613281 1086.789062 128.691406 1162.539062 114.074219 C 1260.5625 95.164062 1366.359375 126.566406 1439.980469 193.554688 Z M 1439.980469 193.554688 " fill-opacity="1" fill-rule="nonzero"/><path fill="#fffae6" d="M 1439.980469 0.0898438 L 0.503906 0.0898438 L 0.503906 90.234375 C 261.4375 19.621094 379.324219 209.8125 532.15625 119.546875 C 600.441406 79.21875 677.5625 39.390625 759.109375 39.566406 C 845.886719 39.757812 924.140625 93.65625 1012.179688 90.628906 C 1085.984375 88.09375 1153.09375 48.203125 1225.394531 33.167969 C 1297.667969 18.140625 1374.539062 30.472656 1439.980469 64.410156 Z M 1439.980469 0.0898438 " fill-opacity="1" fill-rule="nonzero"/></svg>