<svg xmlns="http://www.w3.org/2000/svg" xmlns:xlink="http://www.w3.org/1999/xlink" width="1920" zoomAndPan="magnify" viewBox="0 0 1440 809.999993" height="1080" preserveAspectRatio="xMidYMid meet" version="1.0"><path fill="#30533f" d="M 0.125 602.011719 C 0.0898438 671.308594 0.0546875 740.609375 0.0195312 809.90625 L 1439.496094 809.90625 C 1439.660156 742.328125 1439.820312 674.746094 1439.980469 607.164062 C 1393.4375 646.117188 1322.089844 629.847656 1269.265625 599.957031 C 1227.769531 576.476562 1189.984375 545.78125 1145.277344 528.269531 C 1100.898438 510.886719 1051.253906 497.546875 1006.5 521.285156 C 973.511719 538.78125 950.9375 570.535156 923.21875 595.558594 C 866.292969 646.941406 784.378906 669.234375 709.265625 653.785156 C 628.089844 637.085938 555.035156 579.5625 472.328125 584.816406 C 408.785156 588.851562 354.164062 629.378906 294.230469 650.867188 C 196.480469 685.917969 81.132812 666.613281 0.125 601.640625 Z M 0.125 602.011719 " fill-opacity="1" fill-rule="nonzero"/><path fill="#30533f" d="M 0.0195312 616.441406 L 0.0195312 809.90625 L 1439.496094 809.90625 L 1439.496094 665.617188 C 1248.390625 773.269531 1116.082031 549.445312 965.789062 614.316406 C 907.132812 639.636719 848.960938 684.96875 782.296875 689.695312 C 683.347656 696.710938 597.339844 635.636719 500.652344 637.71875 C 423.519531 639.382812 353.210938 681.308594 277.460938 695.921875 C 179.4375 714.832031 73.640625 683.429688 0.0195312 616.441406 Z M 0.0195312 616.441406 " fill-opacity="1" fill-rule="nonzero"/><path fill="#30533f" d="M 0.0195312 809.90625 L 1439.496094 809.90625 L 1439.496094 719.761719 C 1178.5625 790.378906 1060.675781 600.1875 907.84375 690.453125 C 839.558594 730.78125 762.4375 770.605469 680.890625 770.429688 C 594.113281 770.238281 515.859375 716.339844 427.820312 719.367188 C 354.015625 721.90625 286.90625 761.792969 214.605469 776.828125 C 142.332031 791.855469 65.460938 779.523438 0.0195312 745.589844 Z M 0.0195312 809.90625 " fill-opacity="1" fill-rule="nonzero"/></svg>