<svg xmlns="http://www.w3.org/2000/svg" xmlns:xlink="http://www.w3.org/1999/xlink" width="1600" zoomAndPan="magnify" viewBox="0 0 1200 262.499992" height="350" preserveAspectRatio="xMidYMid meet" version="1.0"><defs><clipPath id="7a84e0c99d"><path d="M 447.558594 209.164062 L 462.527344 209.164062 L 462.527344 224.136719 L 447.558594 224.136719 Z M 447.558594 209.164062 " clip-rule="nonzero"/></clipPath><clipPath id="6dcd2e9b2f"><path d="M 1.140625 9 L 1198.859375 9 L 1198.859375 262 L 1.140625 262 Z M 1.140625 9 " clip-rule="nonzero"/></clipPath><clipPath id="efebb6d563"><path d="M 1.140625 90 L 1198.859375 90 L 1198.859375 262 L 1.140625 262 Z M 1.140625 90 " clip-rule="nonzero"/></clipPath><clipPath id="dd098e48e2"><path d="M 1.140625 144 L 1198.859375 144 L 1198.859375 262 L 1.140625 262 Z M 1.140625 144 " clip-rule="nonzero"/></clipPath></defs><g clip-path="url(#7a84e0c99d)"><path fill="#000000" d="M 455.042969 209.164062 C 459.175781 209.164062 462.527344 212.515625 462.527344 216.652344 C 462.527344 220.785156 459.175781 224.136719 455.042969 224.136719 C 450.910156 224.136719 447.558594 220.785156 447.558594 216.652344 C 447.558594 212.515625 450.910156 209.164062 455.042969 209.164062 Z M 455.042969 209.164062 " fill-opacity="1" fill-rule="evenodd"/></g><g clip-path="url(#6dcd2e9b2f)"><path fill="#30533f" d="M -12.757812 89.929688 C -12.789062 149.503906 -12.816406 209.074219 -12.847656 268.648438 L 1224.613281 268.648438 C 1224.75 210.554688 1224.886719 152.457031 1225.027344 94.359375 C 1185.015625 127.84375 1123.679688 113.859375 1078.269531 88.164062 C 1042.597656 67.976562 1010.113281 41.589844 971.679688 26.535156 C 933.53125 11.59375 890.851562 0.125 852.378906 20.53125 C 824.023438 35.574219 804.617188 62.871094 780.789062 84.382812 C 731.851562 128.554688 661.433594 147.71875 596.859375 134.4375 C 527.078125 120.082031 464.277344 70.632812 393.175781 75.148438 C 338.550781 78.617188 291.597656 113.457031 240.074219 131.929688 C 156.042969 162.0625 56.882812 145.464844 -12.757812 89.613281 Z M -12.757812 89.929688 " fill-opacity="1" fill-rule="nonzero"/></g><g clip-path="url(#efebb6d563)"><path fill="#30533f" d="M -12.847656 102.335938 L -12.847656 268.648438 L 1224.613281 268.648438 L 1224.613281 144.609375 C 1060.324219 237.152344 946.585938 44.742188 817.386719 100.507812 C 766.960938 122.273438 716.953125 161.242188 659.644531 165.308594 C 574.578125 171.339844 500.644531 118.835938 417.523438 120.628906 C 351.21875 122.054688 290.773438 158.097656 225.65625 170.660156 C 141.390625 186.917969 50.441406 159.921875 -12.847656 102.335938 Z M -12.847656 102.335938 " fill-opacity="1" fill-rule="nonzero"/></g><g clip-path="url(#dd098e48e2)"><path fill="#30533f" d="M -12.847656 268.648438 L 1224.613281 268.648438 L 1224.613281 191.15625 C 1000.296875 251.859375 898.957031 88.359375 767.570312 165.957031 C 708.867188 200.625 642.570312 234.863281 572.46875 234.710938 C 497.871094 234.546875 430.597656 188.214844 354.914062 190.816406 C 291.46875 192.996094 233.777344 227.289062 171.621094 240.210938 C 109.492188 253.132812 43.410156 242.53125 -12.847656 213.355469 Z M -12.847656 268.648438 " fill-opacity="1" fill-rule="nonzero"/></g></svg>