<svg xmlns="http://www.w3.org/2000/svg" xmlns:xlink="http://www.w3.org/1999/xlink" width="1600" zoomAndPan="magnify" viewBox="0 0 1200 262.499992" height="350" preserveAspectRatio="xMidYMid meet" version="1.0"><defs><clipPath id="9cb517d74c"><path d="M 547.601562 78.601562 L 556.582031 78.601562 L 556.582031 87.582031 L 547.601562 87.582031 Z M 547.601562 78.601562 " clip-rule="nonzero"/></clipPath><clipPath id="61e28a73c9"><path d="M 1.140625 0 L 1198.859375 0 L 1198.859375 241 L 1.140625 241 Z M 1.140625 0 " clip-rule="nonzero"/></clipPath><clipPath id="54bf27c1ff"><path d="M 1.140625 0 L 1198.859375 0 L 1198.859375 160 L 1.140625 160 Z M 1.140625 0 " clip-rule="nonzero"/></clipPath><clipPath id="17e1d544f3"><path d="M 1.140625 0 L 1198.859375 0 L 1198.859375 106 L 1.140625 106 Z M 1.140625 0 " clip-rule="nonzero"/></clipPath></defs><g clip-path="url(#9cb517d74c)"><path fill="#000000" d="M 552.089844 78.601562 C 554.570312 78.601562 556.582031 80.609375 556.582031 83.089844 C 556.582031 85.570312 554.570312 87.582031 552.089844 87.582031 C 549.609375 87.582031 547.601562 85.570312 547.601562 83.089844 C 547.601562 80.609375 549.609375 78.601562 552.089844 78.601562 Z M 552.089844 78.601562 " fill-opacity="1" fill-rule="evenodd"/></g><g clip-path="url(#61e28a73c9)"><path fill="#fffae6" d="M 1218.84375 159.882812 C 1218.871094 100.308594 1218.902344 40.734375 1218.933594 -18.839844 L -18.527344 -18.839844 C -18.664062 39.257812 -18.804688 97.355469 -18.941406 155.449219 C 21.070312 121.964844 82.40625 135.953125 127.8125 161.648438 C 163.488281 181.832031 195.972656 208.21875 234.40625 223.273438 C 272.554688 238.21875 315.234375 249.683594 353.703125 229.277344 C 382.0625 214.234375 401.46875 186.9375 425.296875 165.429688 C 474.234375 121.253906 544.652344 102.089844 609.226562 115.375 C 679.007812 129.730469 741.808594 179.179688 812.910156 174.664062 C 867.535156 171.195312 914.488281 136.355469 966.011719 117.878906 C 1050.042969 87.75 1149.203125 104.34375 1218.84375 160.199219 Z M 1218.84375 159.882812 " fill-opacity="1" fill-rule="nonzero"/></g><g clip-path="url(#54bf27c1ff)"><path fill="#ffe4c4" d="M 1218.933594 147.476562 L 1218.933594 -18.839844 L -18.527344 -18.839844 L -18.527344 105.203125 C 145.761719 12.65625 259.5 205.070312 388.699219 149.300781 C 439.125 127.535156 489.132812 88.566406 546.441406 84.5 C 631.503906 78.472656 705.441406 130.972656 788.5625 129.183594 C 854.867188 127.753906 915.3125 91.714844 980.429688 79.148438 C 1064.695312 62.890625 1155.644531 89.886719 1218.933594 147.476562 Z M 1218.933594 147.476562 " fill-opacity="1" fill-rule="nonzero"/></g><g clip-path="url(#17e1d544f3)"><path fill="#fffae6" d="M 1218.933594 -18.839844 L -18.527344 -18.839844 L -18.527344 58.65625 C 205.789062 -2.050781 307.128906 161.449219 438.515625 83.851562 C 497.214844 49.183594 563.511719 14.945312 633.617188 15.097656 C 708.214844 15.261719 775.488281 61.597656 851.171875 58.996094 C 914.617188 56.8125 972.308594 22.523438 1034.460938 9.597656 C 1096.59375 -3.320312 1162.675781 7.28125 1218.933594 36.453125 Z M 1218.933594 -18.839844 " fill-opacity="1" fill-rule="nonzero"/></g></svg>