<svg xmlns="http://www.w3.org/2000/svg" xmlns:xlink="http://www.w3.org/1999/xlink" width="1920" zoomAndPan="magnify" viewBox="0 0 1440 809.999993" height="1080" preserveAspectRatio="xMidYMid meet" version="1.0"><path fill="#30533f" d="M 1440 655.871094 L 1440 765.308594 L 1433.703125 765.308594 C 1215.71875 736.335938 935.113281 662.71875 739.621094 479.882812 C 946.617188 629.898438 1217.222656 662.144531 1440 655.871094 Z M 1440 655.871094 " fill-opacity="1" fill-rule="nonzero"/><path fill="#ffe4c4" d="M 1433.703125 809.949219 L 0 809.949219 L 0 18.679688 C 137.429688 -2.617188 401.199219 13.398438 611.433594 366.222656 C 647.328125 426.464844 690.816406 478.894531 739.59375 524.523438 C 935.113281 707.359375 1215.71875 780.976562 1433.703125 809.949219 Z M 1433.703125 809.949219 " fill-opacity="1" fill-rule="nonzero"/><path fill="#ffe4c4" d="M 932.734375 809.949219 L 0 809.949219 L 0 12.871094 C 142.847656 11.992188 387.046875 69.09375 549.882812 424.976562 C 630.351562 600.851562 774.71875 723.933594 932.734375 809.949219 Z M 932.734375 809.949219 " fill-opacity="1" fill-rule="nonzero"/></svg>