<svg xmlns="http://www.w3.org/2000/svg" xmlns:xlink="http://www.w3.org/1999/xlink" width="1920" zoomAndPan="magnify" viewBox="0 0 1440 809.999993" height="1080" preserveAspectRatio="xMidYMid meet" version="1.0"><defs><clipPath id="06a6e81eae"><path d="M 0 81 L 1440 81 L 1440 795 L 0 795 Z M 0 81 " clip-rule="nonzero"/></clipPath></defs><g clip-path="url(#06a6e81eae)"><path fill="#ffe4c4" d="M 1451.667969 791.648438 L 1451.667969 80.660156 L -93.863281 80.660156 L -93.863281 748.007812 C -73.988281 734.476562 -56.398438 720.015625 -41.933594 704.878906 C 173.382812 478.652344 556.824219 535.90625 806.394531 655.996094 C 994.140625 746.402344 1231.445312 809.914062 1451.667969 791.648438 Z M 1451.667969 791.648438 " fill-opacity="1" fill-rule="evenodd"/></g><path fill="#ffe4c4" d="M 51.0625 -197.6875 L 1388.933594 -197.6875 C 1390.75 -197.6875 1392.5625 -197.640625 1394.375 -197.554688 C 1396.1875 -197.464844 1397.996094 -197.332031 1399.800781 -197.152344 C 1401.605469 -196.976562 1403.40625 -196.753906 1405.203125 -196.488281 C 1406.996094 -196.222656 1408.785156 -195.910156 1410.5625 -195.558594 C 1412.34375 -195.203125 1414.113281 -194.804688 1415.871094 -194.363281 C 1417.632812 -193.921875 1419.378906 -193.441406 1421.117188 -192.914062 C 1422.851562 -192.386719 1424.574219 -191.816406 1426.285156 -191.207031 C 1427.992188 -190.59375 1429.683594 -189.941406 1431.359375 -189.246094 C 1433.035156 -188.554688 1434.695312 -187.820312 1436.335938 -187.042969 C 1437.976562 -186.265625 1439.59375 -185.453125 1441.195312 -184.597656 C 1442.796875 -183.742188 1444.375 -182.847656 1445.929688 -181.914062 C 1447.488281 -180.980469 1449.019531 -180.011719 1450.527344 -179.003906 C 1452.035156 -177.996094 1453.519531 -176.949219 1454.976562 -175.871094 C 1456.433594 -174.789062 1457.863281 -173.671875 1459.265625 -172.523438 C 1460.667969 -171.371094 1462.042969 -170.1875 1463.386719 -168.96875 C 1464.730469 -167.75 1466.042969 -166.5 1467.328125 -165.214844 C 1468.609375 -163.933594 1469.863281 -162.617188 1471.078125 -161.273438 C 1472.296875 -159.929688 1473.484375 -158.554688 1474.632812 -157.152344 C 1475.785156 -155.75 1476.902344 -154.320312 1477.980469 -152.863281 C 1479.0625 -151.40625 1480.105469 -149.925781 1481.113281 -148.414062 C 1482.125 -146.90625 1483.09375 -145.375 1484.027344 -143.816406 C 1484.960938 -142.261719 1485.851562 -140.683594 1486.707031 -139.082031 C 1487.5625 -137.484375 1488.378906 -135.863281 1489.15625 -134.222656 C 1489.929688 -132.582031 1490.667969 -130.925781 1491.359375 -129.25 C 1492.054688 -127.570312 1492.707031 -125.878906 1493.320312 -124.171875 C 1493.929688 -122.464844 1494.5 -120.742188 1495.027344 -119.003906 C 1495.550781 -117.269531 1496.035156 -115.519531 1496.476562 -113.761719 C 1496.917969 -112 1497.316406 -110.230469 1497.667969 -108.449219 C 1498.023438 -106.671875 1498.332031 -104.882812 1498.597656 -103.089844 C 1498.867188 -101.292969 1499.085938 -99.496094 1499.265625 -97.6875 C 1499.445312 -95.882812 1499.578125 -94.074219 1499.664062 -92.261719 C 1499.753906 -90.449219 1499.800781 -88.636719 1499.800781 -86.820312 L 1499.800781 334.128906 C 1499.800781 335.941406 1499.753906 337.753906 1499.664062 339.566406 C 1499.578125 341.378906 1499.445312 343.1875 1499.265625 344.992188 C 1499.085938 346.800781 1498.867188 348.601562 1498.597656 350.394531 C 1498.332031 352.1875 1498.023438 353.976562 1497.667969 355.757812 C 1497.316406 357.535156 1496.917969 359.304688 1496.476562 361.066406 C 1496.035156 362.824219 1495.550781 364.574219 1495.027344 366.308594 C 1494.5 368.046875 1493.929688 369.769531 1493.320312 371.476562 C 1492.707031 373.183594 1492.054688 374.878906 1491.359375 376.554688 C 1490.667969 378.230469 1489.929688 379.886719 1489.15625 381.527344 C 1488.378906 383.167969 1487.5625 384.789062 1486.707031 386.386719 C 1485.851562 387.988281 1484.960938 389.566406 1484.027344 391.125 C 1483.09375 392.679688 1482.125 394.210938 1481.113281 395.71875 C 1480.105469 397.230469 1479.0625 398.710938 1477.980469 400.167969 C 1476.902344 401.625 1475.785156 403.058594 1474.632812 404.460938 C 1473.484375 405.863281 1472.296875 407.234375 1471.078125 408.578125 C 1469.863281 409.925781 1468.609375 411.238281 1467.328125 412.519531 C 1466.042969 413.804688 1464.730469 415.054688 1463.386719 416.273438 C 1462.042969 417.492188 1460.667969 418.675781 1459.265625 419.828125 C 1457.863281 420.976562 1456.433594 422.09375 1454.976562 423.175781 C 1453.519531 424.253906 1452.035156 425.300781 1450.527344 426.308594 C 1449.019531 427.316406 1447.488281 428.285156 1445.929688 429.21875 C 1444.375 430.152344 1442.796875 431.046875 1441.195312 431.902344 C 1439.597656 432.757812 1437.976562 433.570312 1436.335938 434.347656 C 1434.695312 435.125 1433.035156 435.859375 1431.359375 436.554688 C 1429.683594 437.246094 1427.992188 437.898438 1426.285156 438.511719 C 1424.574219 439.121094 1422.851562 439.691406 1421.117188 440.21875 C 1419.378906 440.746094 1417.632812 441.230469 1415.871094 441.667969 C 1414.113281 442.109375 1412.34375 442.507812 1410.5625 442.863281 C 1408.785156 443.214844 1406.996094 443.527344 1405.203125 443.792969 C 1403.40625 444.058594 1401.605469 444.28125 1399.800781 444.457031 C 1397.996094 444.636719 1396.1875 444.769531 1394.375 444.859375 C 1392.5625 444.949219 1390.75 444.992188 1388.933594 444.992188 L 51.0625 444.992188 C 49.25 444.992188 47.433594 444.949219 45.621094 444.859375 C 43.8125 444.769531 42 444.636719 40.195312 444.457031 C 38.390625 444.28125 36.589844 444.058594 34.796875 443.792969 C 33 443.527344 31.214844 443.214844 29.433594 442.863281 C 27.65625 442.507812 25.886719 442.109375 24.125 441.667969 C 22.363281 441.230469 20.617188 440.746094 18.878906 440.21875 C 17.144531 439.691406 15.421875 439.121094 13.714844 438.511719 C 12.003906 437.898438 10.3125 437.246094 8.636719 436.554688 C 6.960938 435.859375 5.300781 435.125 3.660156 434.347656 C 2.023438 433.570312 0.402344 432.757812 -1.199219 431.902344 C -2.796875 431.046875 -4.375 430.152344 -5.933594 429.21875 C -7.488281 428.285156 -9.023438 427.316406 -10.53125 426.308594 C -12.039062 425.300781 -13.523438 424.253906 -14.980469 423.175781 C -16.4375 422.09375 -17.867188 420.976562 -19.269531 419.828125 C -20.671875 418.675781 -22.046875 417.492188 -23.390625 416.273438 C -24.734375 415.054688 -26.046875 413.804688 -27.332031 412.519531 C -28.613281 411.238281 -29.863281 409.925781 -31.082031 408.578125 C -32.300781 407.234375 -33.484375 405.863281 -34.636719 404.460938 C -35.789062 403.058594 -36.902344 401.625 -37.984375 400.167969 C -39.066406 398.710938 -40.109375 397.230469 -41.117188 395.71875 C -42.125 394.210938 -43.097656 392.679688 -44.027344 391.125 C -44.960938 389.566406 -45.855469 387.988281 -46.710938 386.390625 C -47.566406 384.789062 -48.382812 383.167969 -49.15625 381.527344 C -49.933594 379.886719 -50.667969 378.230469 -51.363281 376.554688 C -52.058594 374.878906 -52.710938 373.183594 -53.320312 371.476562 C -53.933594 369.769531 -54.5 368.046875 -55.027344 366.308594 C -55.554688 364.574219 -56.039062 362.824219 -56.480469 361.066406 C -56.921875 359.304688 -57.316406 357.535156 -57.671875 355.757812 C -58.027344 353.976562 -58.335938 352.1875 -58.601562 350.394531 C -58.867188 348.601562 -59.089844 346.800781 -59.269531 344.992188 C -59.445312 343.1875 -59.578125 341.378906 -59.667969 339.566406 C -59.757812 337.753906 -59.800781 335.941406 -59.800781 334.128906 L -59.800781 -86.820312 C -59.800781 -88.636719 -59.757812 -90.449219 -59.667969 -92.261719 C -59.578125 -94.074219 -59.445312 -95.882812 -59.269531 -97.6875 C -59.089844 -99.496094 -58.867188 -101.292969 -58.601562 -103.089844 C -58.335938 -104.882812 -58.027344 -106.671875 -57.671875 -108.449219 C -57.316406 -110.230469 -56.921875 -112 -56.480469 -113.761719 C -56.039062 -115.519531 -55.554688 -117.269531 -55.027344 -119.003906 C -54.5 -120.742188 -53.933594 -122.464844 -53.320312 -124.171875 C -52.710938 -125.878906 -52.058594 -127.570312 -51.363281 -129.25 C -50.667969 -130.925781 -49.933594 -132.582031 -49.15625 -134.222656 C -48.382812 -135.863281 -47.566406 -137.484375 -46.710938 -139.082031 C -45.855469 -140.683594 -44.960938 -142.261719 -44.027344 -143.816406 C -43.097656 -145.375 -42.125 -146.90625 -41.117188 -148.414062 C -40.109375 -149.925781 -39.066406 -151.40625 -37.984375 -152.863281 C -36.902344 -154.320312 -35.789062 -155.75 -34.636719 -157.152344 C -33.484375 -158.554688 -32.300781 -159.929688 -31.082031 -161.273438 C -29.863281 -162.617188 -28.613281 -163.933594 -27.332031 -165.214844 C -26.046875 -166.5 -24.734375 -167.75 -23.390625 -168.96875 C -22.046875 -170.1875 -20.671875 -171.371094 -19.269531 -172.523438 C -17.867188 -173.671875 -16.4375 -174.789062 -14.980469 -175.871094 C -13.523438 -176.949219 -12.039062 -177.996094 -10.53125 -179.003906 C -9.023438 -180.011719 -7.488281 -180.980469 -5.933594 -181.914062 C -4.375 -182.847656 -2.796875 -183.742188 -1.199219 -184.597656 C 0.402344 -185.453125 2.023438 -186.265625 3.660156 -187.042969 C 5.300781 -187.820312 6.960938 -188.554688 8.636719 -189.246094 C 10.3125 -189.941406 12.003906 -190.59375 13.714844 -191.207031 C 15.421875 -191.816406 17.144531 -192.386719 18.878906 -192.914062 C 20.617188 -193.441406 22.363281 -193.921875 24.125 -194.363281 C 25.886719 -194.804688 27.65625 -195.203125 29.433594 -195.558594 C 31.214844 -195.910156 33 -196.222656 34.796875 -196.488281 C 36.589844 -196.753906 38.390625 -196.976562 40.195312 -197.152344 C 42 -197.332031 43.8125 -197.464844 45.621094 -197.554688 C 47.433594 -197.640625 49.25 -197.6875 51.0625 -197.6875 Z M 51.0625 -197.6875 " fill-opacity="1" fill-rule="nonzero"/></svg>